<svg width="4402" height="1687" viewBox="0 0 4402 1687" fill="none" xmlns="http://www.w3.org/2000/svg">
<path d="M2.01953 1686C2.22953 1680.69 2.60953 1675.38 2.60953 1670.07C2.63953 1119.84 2.63953 569.599 2.63953 19.3686C2.63953 14.0986 2.63953 8.83858 2.63953 3.87858C10.9895 1.66858 563.18 1.02858 577.31 3.03858C577.64 5.34858 578.18 7.85858 578.32 10.3886C578.5 13.7086 578.38 17.0386 578.38 20.3686C578.38 570.269 578.38 1120.17 578.349 1670.07C578.349 1675.37 577.919 1680.68 577.7 1685.99H401.8C401.93 1681.67 402.17 1677.35 402.17 1673.03C402.19 1135.49 402.19 597.939 402.19 60.3986C402.19 58.0686 402.3 55.7286 402.15 53.4086C401.99 50.8586 401.6 48.3286 401.33 45.9786C387.06 43.9486 187.52 44.6486 179.46 46.8986C179.46 50.8786 179.46 55.1486 179.46 59.4086C179.46 597.619 179.46 1135.83 179.48 1674.04C179.48 1678.02 179.77 1682 179.93 1685.99H2.01953V1686Z" fill="white"/>
<path d="M1908.92 1686C1909.17 1681.37 1909.65 1676.74 1909.65 1672.11C1909.69 1460.05 1909.68 1247.98 1909.68 1035.92C1909.68 1031.67 1909.68 1027.41 1909.68 1021.81H1954.45V977.169H1998.44V933.279H2042.7V889.059C2058.14 888.299 2072.67 888.769 2087.17 888.679C2101.42 888.599 2115.67 888.659 2131.14 888.659V844.719C2146.4 844.449 2160.49 844.199 2175.62 843.929V800.139H2220.47V755.569H2264.03V709.339H2174.59V750.999C2166.63 753.219 2060.14 753.919 2043.34 751.979V709.389C2028.32 708.189 2014.13 709.409 1998.78 708.529V664.499H1954.53V575.889C1939.01 575.759 1924.91 575.649 1910.34 575.529V533.939H1953.56C1955.42 523.789 1954.3 514.219 1954.49 504.749C1954.69 495.099 1954.53 485.439 1954.53 475.789V445.889H1998.48V401.239C2006.82 401.239 2013.7 401.239 2020.59 401.239C2027.48 401.239 2034.43 401.239 2042.72 401.239C2042.8 393.229 2042.9 386.379 2042.94 379.529C2042.98 372.589 2042.94 365.649 2042.94 358.999C2051.43 356.329 2161.95 356.019 2172.43 358.529V398.859H2129.79V666.609H2308.44V310.369C2279.57 309.379 2250.77 310.519 2221.38 309.709V268.359H2264.42C2264.54 256.549 2264.68 245.719 2264.74 234.879C2264.79 223.889 2264.75 212.909 2264.75 201.919V136.239C2279.41 133.949 2293.73 136.419 2308.72 134.499V3.87943C2316.96 1.65943 2466.26 0.919433 2482.89 2.82943C2483.17 5.16943 2483.63 7.69943 2483.74 10.2394C2483.89 13.5594 2483.78 16.8994 2483.78 20.2294C2483.78 570.529 2483.78 1120.83 2483.81 1671.13C2483.81 1676.09 2484.31 1681.05 2484.57 1686.01H2308.67C2308.8 1683.36 2309.05 1680.7 2309.05 1678.05C2309.07 1403.06 2309.07 1128.06 2309.05 853.069C2309.05 849.829 2308.73 846.579 2308.57 843.539C2298.19 841.269 2226.35 841.539 2217.67 844.049V886.479H2173.76C2172.22 901.809 2174.34 916.079 2172.24 931.069H2128.9C2128.9 936.739 2128.9 941.339 2128.9 945.939C2128.9 1187.64 2128.9 1429.34 2128.9 1671.05C2128.9 1676.04 2128.83 1681.04 2128.79 1686.03H1908.92V1686Z" fill="white"/>
<path d="M1299.27 1686C1299.19 1681.67 1299.05 1677.35 1299.05 1673.02C1299.04 1121.37 1299.05 569.722 1299.05 18.0819V2.69189H1474.6V621.422H1564.68C1564.92 607.182 1565.16 593.092 1565.41 578.072H1609.16V533.762H1653.08C1653.81 507.562 1653.33 482.392 1653.42 457.232C1653.51 432.262 1653.44 407.292 1653.44 382.322V4.05189C1661.05 1.52189 1804.65 0.491888 1827.22 2.61189C1829.41 9.47189 1830.18 516.062 1827.87 531.212C1799.36 532.942 1770.52 530.722 1740.87 532.462V576.232C1711.19 576.952 1682.38 576.162 1652.23 576.722V620.632H1607.8V664.702H1563.41V709.052H1520.91C1518.55 717.372 1517.81 779.492 1519.68 798.922C1533.5 800.042 1547.69 798.812 1562.76 799.672V842.822C1577.73 844.292 1591.94 842.792 1607.39 843.882V887.802H1651.45C1652.94 902.932 1651.35 917.192 1652.61 932.642C1675 932.912 1696.88 932.732 1718.75 932.762C1740.33 932.792 1761.9 932.762 1784.62 932.762V976.322H1828.4C1828.64 980.862 1828.98 984.362 1828.99 987.862C1829.03 1021.48 1829.02 1055.11 1829.01 1088.73C1829.01 1287.81 1829 1486.9 1828.99 1685.98H1653.09C1653.21 1681.33 1653.43 1676.67 1653.43 1672.02C1653.45 1458 1653.44 1243.97 1653.44 1029.95C1653.44 1014.97 1653.48 999.992 1653.41 985.022C1653.39 981.862 1652.96 978.702 1652.64 974.422H1609.13V930.482H1564.71V886.322H1520.33V842.982H1474.59C1474.59 847.442 1474.59 851.342 1474.59 855.242C1474.59 1128.51 1474.59 1401.78 1474.62 1675.05C1474.62 1678.69 1475 1682.33 1475.2 1685.97H1299.3L1299.27 1686Z" fill="white"/>
<path d="M3228.16 1686C3228.19 1681.01 3228.24 1676.01 3228.24 1671.02C3228.24 1120.03 3228.24 569.05 3228.24 18.0597V2.67969H3402.75C3403.83 28.2497 3403.09 53.7697 3403.23 79.2797C3403.37 105.25 3403.26 131.22 3403.26 157.18V543.7C3403.26 569.29 3403.26 594.88 3403.26 620.23C3410.97 622.58 3478.12 623.28 3493.66 621.2C3494.88 607.43 3493.5 593.23 3494.5 578.21H3537.5C3539.31 563.26 3537.5 549.02 3538.71 533.99H3581.98C3582.58 503.54 3582.18 474.06 3582.26 444.59C3582.33 415.29 3582.28 386 3582.28 356.7V91.0197C3582.28 61.7997 3582.28 32.5797 3582.28 2.69969H3755.73C3758 10.0697 3759.12 502.05 3756.81 530.72C3747.59 531.91 3738.04 531.12 3728.56 531.26C3718.9 531.4 3709.24 531.29 3699.58 531.29C3689.92 531.29 3680.39 531.29 3669.34 531.29V575.83H3580.43V620.16C3565.25 620.29 3551.18 620.42 3536.03 620.55V664.19H3492.3C3490.71 679.17 3492.3 693.4 3491.19 708.48H3449.72C3447.06 716.4 3446.51 786.58 3448.88 799.64H3491.22V843.58H3535.6V887.54C3550.49 890.02 3564.79 887.47 3580.16 889.35V933H3713.08V976.84H3757.43C3757.43 982.39 3757.43 986.64 3757.43 990.88C3757.43 1217.93 3757.43 1444.99 3757.45 1672.04C3757.45 1676.69 3757.72 1681.34 3757.86 1685.98H3581.96C3582.08 1681.66 3582.3 1677.34 3582.3 1673.02C3582.32 1486.66 3582.31 1300.3 3582.31 1113.94C3582.31 1071.68 3582.32 1029.41 3582.28 987.15C3582.28 983.31 3581.91 979.48 3581.66 974.52H3538.71C3537.68 959.31 3539.12 945.11 3537.71 930.22H3493.95V886.58H3449.18V843.04H3403.26V854.45C3403.26 1128 3403.26 1401.55 3403.29 1675.1C3403.29 1678.73 3403.79 1682.35 3404.05 1685.98H3228.15L3228.16 1686Z" fill="white"/>
<path d="M3825.82 1686C3825.99 1681.35 3826.31 1676.71 3826.31 1672.06C3826.33 1459.65 3826.33 1247.24 3826.33 1034.83V1021.15H3870.35V977.058H3914.85C3915.04 962.138 3915.22 948.058 3915.42 932.808H3959.52V889.278C3969.73 887.218 3979.33 888.438 3988.82 888.228C3998.48 888.008 4008.14 888.178 4017.8 888.178H4047.83V843.808H4091.97V799.488H4136.84V755.658H4180.74C4181.63 739.828 4181.59 725.118 4180.7 709.408H4091.4V752.458H3959.62V709.458H3916.43C3913.41 694.378 3916.85 679.998 3914.09 665.228H3870.85C3869.93 635.658 3870.93 606.868 3870.27 577.568C3855.82 574.668 3841.45 578.098 3826.95 575.438V533.688H3870.35C3870.66 503.968 3870.32 475.208 3870.56 445.368H3914.03C3916.55 430.628 3913.96 416.618 3915.98 401.808C3929.81 399.158 3944.17 402.138 3959.48 399.828V356.708H4090.74C4091.11 370.818 4091.03 384.558 4090.77 399.278H4047.49V665.148C4057.69 667.278 4216.51 667.028 4224.91 664.868V310.808H4137.43C4136.8 296.188 4136.97 282.768 4137.33 268.178H4180.54C4180.82 263.218 4181.23 259.338 4181.23 255.468C4181.28 219.508 4181.26 183.558 4181.26 147.598V134.778H4225.48C4225.75 119.208 4225.59 104.678 4225.61 90.1483C4225.64 75.8283 4225.61 61.5183 4225.61 47.1983V2.73828H4398.61C4399 4.70828 4399.65 6.85828 4399.8 9.04828C4400.02 12.3683 4399.88 15.7083 4399.88 19.0283C4399.88 570.028 4399.88 1121.04 4399.86 1672.04C4399.86 1676.69 4399.63 1681.35 4399.5 1686H4225.6V843.268H4135.01V886.818H4090.74V930.958H4046.43C4046.43 937.248 4046.43 942.178 4046.43 947.108C4046.43 1188.44 4046.43 1429.76 4046.4 1671.09C4046.4 1676.06 4045.94 1681.03 4045.7 1686H3825.83H3825.82Z" fill="white"/>
<path d="M669.63 1686C669.51 1681.68 669.29 1677.36 669.29 1673.03C669.27 1163.34 669.28 653.64 669.28 143.95V128.08H713.09V44.4204H802.82V4.11042C811.06 1.56042 1057.3 1.12042 1068.9 3.51042V43.9704H1113.65V85.5904H1158.67V170.2H1200.94C1203.42 178.92 1204.43 520.09 1202.4 545.33C1195.61 547.48 1043.7 548.31 1026.18 546.16V85.7104C1018.14 83.3104 864.43 82.4804 846.49 84.5804C844.97 112.05 846.75 139.84 845.48 168.5H804.04C802.76 169.75 802.52 169.97 802.3 170.21C802.08 170.45 801.72 170.7 801.68 170.98C801.46 172.62 801.17 174.27 801.17 175.92C801.18 327.06 801.21 478.21 801.28 629.35C801.28 630.28 801.76 631.21 802.34 633.31H1113.73V675.9H1158.61V716.97H1202.33V968.11H1025.91C1025.77 884.25 1025.93 800.53 1025.82 715.64C1011.39 714.36 997.47 715.64 982.46 714.75V676.59C974.18 673.89 857.47 673.42 845.91 675.94V757.52H801.83V1473.78H846.24V1601.68H937.01V1517.55H981.72V1391.82C996.44 1390.2 1010.38 1391.74 1025.65 1390.68C1026.1 1362.6 1025.79 1334.78 1025.85 1306.97C1025.91 1279.34 1025.86 1251.71 1025.86 1224.07C1025.86 1196.43 1025.86 1168.25 1025.86 1139.64H1202.36V1346.16C1188.1 1348.51 1173.75 1345.68 1159.09 1348.02V1472.76C1143.98 1473.05 1129.56 1473.33 1113.98 1473.63V1515.23H1069.18V1599.68C1039.23 1601.76 1010.38 1598.73 980.28 1600.56V1641.41H890.13C889.92 1656.95 889.72 1671.46 889.52 1685.97H669.65L669.63 1686Z" fill="white"/>
<path d="M2584.53 1686C2584.68 1681.02 2584.95 1676.03 2584.95 1671.05C2584.97 1119.75 2584.97 568.441 2584.97 17.1409V2.71094H3158.05C3159.91 9.86094 3160.6 560.271 3158.62 575.951H3115.72C3113.28 591.211 3116 605.521 3113.85 620.321H2982.62C2981.02 635.181 2982.64 649.411 2981.49 664.731H2893.84V708.571H2805.18C2804.9 713.801 2804.49 717.961 2804.48 722.111C2804.44 787.361 2804.45 852.611 2804.45 917.861V930.521H2760.68C2760.43 934.931 2760.06 938.441 2760.06 941.951C2760.01 969.251 2760.03 996.551 2760.03 1023.85C2760.03 1239.91 2760.03 1455.97 2760.05 1672.03C2760.05 1676.68 2760.3 1681.33 2760.43 1685.99H2584.53V1686ZM2760.48 44.9509V664.921C2769.74 667.541 2842.18 667.391 2850.98 664.531V622.211H2938.18C2940.78 611.461 2940.46 53.0909 2937.95 44.9509H2760.47H2760.48Z" fill="white"/>
<path d="M2850.75 1018.42V975.22H2807.34V933.37H2850.55C2851.09 902.96 2850.47 873.881 2850.93 843.841H2894.79V799.98H3025.97V843.38H3068.38C3070.95 851.76 3071.45 962.42 3069.09 974.69H3027.05C3025.3 989.55 3027 1003.48 3025.93 1016.88C3025.39 1017.5 3025.19 1017.77 3024.95 1018C3024.72 1018.22 3024.47 1018.52 3024.19 1018.58C3022.89 1018.85 3021.58 1019.25 3020.28 1019.25C2965.98 1019.29 2911.68 1019.3 2857.38 1019.27C2855.75 1019.27 2854.11 1018.87 2850.76 1018.42H2850.75Z" fill="white"/>
<path d="M4046.54 309.77H3872.36C3870.06 302.44 3869.14 109.88 3871.32 91.1403C3885.15 89.5003 3899.4 91.3503 3914.9 89.9303V46.8203H3957.2V90.1103H4001.37C4001.64 105.12 4001.89 119.19 4002.16 134.36H4045.88C4046.14 149.53 4046.39 163.6 4046.66 179.04C4061.56 179.18 4075.66 179.3 4090.29 179.44V265.55H4046.52V309.77H4046.54Z" fill="white"/>
<path d="M2171.52 265.438H2129.28V307.578C2121.53 310.378 1971.46 311.288 1956.27 308.998C1954.15 301.888 1953.48 106.008 1955.69 92.1081C1969.37 89.6381 1983.73 92.7181 1998.8 90.1681V46.8281H2039.67C2040.98 60.8381 2039.61 75.0781 2040.57 90.3981C2054.86 92.3281 2069.13 90.2781 2084.32 91.7681V134.878C2099.53 135.178 2113.62 135.458 2128.76 135.758V179.008C2143.54 180.948 2157.47 179.048 2171.13 180.288C2173.66 187.668 2174.09 253.948 2171.52 265.438Z" fill="white"/>
<path d="M3959.93 44.5083V3.84834C3967.21 1.60834 4114.9 0.708338 4134.95 2.85834V45.8883H4178.66V132.848H4136.82C4135.83 118.628 4137 104.078 4136.07 88.4383H4092.63V44.5083H3959.92H3959.93Z" fill="white"/>
<path d="M2043.62 2.57031H2217.79V45.6603C2232.8 47.1203 2246.99 45.5703 2261.7 46.6703V132.38H2220.73C2220.51 117.94 2220.3 103.54 2220.06 88.0003H2176.62V44.5403C2153.58 43.1103 2131.75 44.0803 2109.96 43.9003C2088.07 43.7203 2066.18 43.8603 2043.62 43.8603V2.57031Z" fill="white"/>
<path d="M4092.78 354.471V312.691H4134.4V354.471H4092.78Z" fill="white"/>
<path d="M2217.17 353.909C2214.52 354.219 2212.28 354.699 2210.04 354.719C2199.13 354.799 2188.21 354.759 2175.93 354.759C2175.29 340.419 2175.55 327.079 2175.73 313.059H2217.16V353.919L2217.17 353.909Z" fill="white"/>
</svg>
