<svg width="25" height="24" viewBox="0 0 25 24" fill="none" xmlns="http://www.w3.org/2000/svg">
<path fill-rule="evenodd" clip-rule="evenodd" d="M2.57478 10.4884C8.74753 7.39348 12.8568 5.33698 14.9203 4.33927C20.7932 1.50904 22.0278 1.02036 22.8214 1C22.9978 1 23.3858 1.04072 23.6503 1.28506C23.8619 1.48867 23.9148 1.75337 23.9501 1.95699C23.9854 2.1606 24.0207 2.58819 23.9854 2.91397C23.6679 6.78264 22.2923 16.1693 21.5868 20.4859C21.287 22.3184 20.705 22.9292 20.1407 22.9903C18.9061 23.1125 17.9714 22.0537 16.7897 21.1578C14.9203 19.7529 13.8797 18.8773 12.0632 17.4927C9.96444 15.9046 11.3224 15.029 12.5217 13.6037C12.8392 13.2372 18.2536 7.53601 18.3594 7.02698C18.377 6.9659 18.377 6.72156 18.2536 6.59939C18.1301 6.47722 17.9537 6.51794 17.8126 6.55867C17.6186 6.59939 14.6557 8.87987 8.88862 13.3797C8.04207 14.0517 7.2837 14.3774 6.59588 14.3571C5.83752 14.3367 4.39133 13.8684 3.29787 13.4612C1.97514 12.9725 0.916957 12.7078 1.00514 11.8526C1.05805 11.4047 1.58714 10.9567 2.57478 10.4884Z" fill="white"/>
</svg>
