<svg width="25" height="25" viewBox="0 0 25 25" fill="none" xmlns="http://www.w3.org/2000/svg">
<circle cx="12.9041" cy="12.8677" r="12" fill="#02A228"/>
<path fill-rule="evenodd" clip-rule="evenodd" d="M5.97714 12.7976C9.26085 11.2087 11.4469 10.153 12.5446 9.64079C15.6688 8.18784 16.3255 7.93697 16.7477 7.92651C16.8415 7.92651 17.0479 7.94742 17.1887 8.07285C17.3013 8.17738 17.3294 8.31327 17.3482 8.4178C17.3669 8.52233 17.3857 8.74184 17.3669 8.90909C17.1981 10.8951 16.4663 15.7139 16.091 17.93C15.9315 18.8707 15.6219 19.1843 15.3216 19.2157C14.6649 19.2784 14.1677 18.7348 13.5391 18.2749C12.5446 17.5537 11.991 17.1042 11.0247 16.3934C9.90821 15.5781 10.6306 15.1286 11.2686 14.3969C11.4375 14.2087 14.3178 11.2819 14.3741 11.0206C14.3834 10.9892 14.3834 10.8638 14.3178 10.8011C14.2521 10.7383 14.1583 10.7593 14.0832 10.7802C13.98 10.8011 12.4038 11.9718 9.33591 14.2819C8.88557 14.6268 8.48214 14.7941 8.11624 14.7836C7.71281 14.7732 6.94349 14.5328 6.3618 14.3237C5.65815 14.0728 5.09523 13.9369 5.14214 13.4979C5.17028 13.268 5.45174 13.038 5.97714 12.7976Z" fill="white"/>
</svg>
