<svg width="567" height="265" viewBox="0 0 567 265" fill="none" xmlns="http://www.w3.org/2000/svg">
<path d="M564.326 86.9089C491.151 88.7054 363.844 102.358 346.598 133.616" stroke="#D71823" stroke-width="5.03001"/>
<circle cx="427.44" cy="122.119" r="26.5872" fill="#D71823"/>
<circle cx="408.755" cy="73.9728" r="26.5872" fill="#D71823"/>
<circle cx="457.616" cy="83.3144" r="26.5872" fill="#D71823"/>
<circle cx="495.7" cy="90.4994" r="12.9343" fill="#D71823"/>
<circle cx="521.57" cy="87.6274" r="12.9343" fill="#D71823"/>
<circle cx="544.209" cy="87.2673" r="9.70073" fill="#D71823"/>
<circle cx="559.655" cy="86.9087" r="6.46715" fill="#D71823"/>
<path d="M259.292 244.993C141.159 304.49 45.0375 216.13 11.7436 164.512C2.88124 141.039 -9.52611 103.506 11.7436 141.159C33.0134 178.813 73.5409 196.13 91.1459 200.082C82.7002 125.194 200.739 168.959 150.069 217.328C180.824 227.101 205.04 216.849 213.303 210.502C170.481 187.319 194.453 155.267 207.973 144.509C225.542 130.529 271.521 135.674 271.508 172.777C297.664 154.956 307.872 129.227 307.512 120.006C296.685 125.076 265.157 119.004 266.243 93.4982C267.447 65.2197 286.813 55.0803 310.484 63.9098C307.035 35.4543 267.503 24.6907 254.089 22.6547C275.373 31.6 260.06 56.9775 240.13 50.8757C214.111 42.9102 210.429 10.7384 252.106 2.47431C319.909 -14.3625 363.937 57.5567 349.61 131.459C341.313 174.256 313.446 217.718 259.292 244.993Z" fill="#D71823"/>
<rect x="179.479" y="10.9224" width="6" height="6" transform="rotate(-0.344098 179.479 10.9224)" fill="#D71823"/>
<rect x="185.515" y="16.8862" width="6" height="6" transform="rotate(-0.344098 185.515 16.8862)" fill="#D71823"/>
<rect x="185.443" y="4.88647" width="6" height="6" transform="rotate(-0.344098 185.443 4.88647)" fill="#D71823"/>
<rect x="191.479" y="10.8503" width="6" height="6" transform="rotate(-0.344098 191.479 10.8503)" fill="#D71823"/>
<rect x="373.815" y="232.759" width="6" height="6" transform="rotate(-0.344098 373.815 232.759)" fill="#D71823"/>
<rect x="379.851" y="238.723" width="6" height="6" transform="rotate(-0.344098 379.851 238.723)" fill="#D71823"/>
<rect x="379.779" y="226.723" width="6" height="6" transform="rotate(-0.344098 379.779 226.723)" fill="#D71823"/>
<rect x="385.815" y="232.687" width="6" height="6" transform="rotate(-0.344098 385.815 232.687)" fill="#D71823"/>
</svg>
