<svg width="547" height="208" viewBox="0 0 547 208" fill="none" xmlns="http://www.w3.org/2000/svg">
<path d="M520.234 36.7188C518.055 38.7578 515.805 40.7969 513.484 42.8359C511.234 44.8047 509.09 46.8789 507.051 49.0586C505.152 51.0977 503.746 53.5938 502.832 56.5469C501.918 59.5 501.461 62.4531 501.461 65.4062C501.461 67.4453 501.637 69.5898 501.988 71.8398C502.41 74.0195 503.043 76.0234 503.887 77.8516C504.801 79.6797 505.926 81.1914 507.262 82.3867C508.598 83.582 510.215 84.1797 512.113 84.1797C520.129 84.1797 524.137 80.9453 524.137 74.4766V36.7188H520.234ZM493.445 12.7773C495.414 12.7773 497.242 13.1641 498.93 13.9375C500.617 14.6406 502.059 15.625 503.254 16.8906C504.52 18.1562 505.504 19.6328 506.207 21.3203C506.91 23.0078 507.262 24.8359 507.262 26.8047C507.262 28.7031 506.91 30.4961 506.207 32.1836C505.504 33.8711 504.52 35.3477 503.254 36.6133C502.059 37.8789 500.617 38.8633 498.93 39.5664C497.242 40.2695 495.414 40.6211 493.445 40.6211C491.547 40.6211 489.754 40.2695 488.066 39.5664C486.379 38.8633 484.938 37.8789 483.742 36.6133C482.547 35.3477 481.598 33.8711 480.895 32.1836C480.191 30.4961 479.84 28.7031 479.84 26.8047C479.84 23.4297 480.262 20.1953 481.105 17.1016C482.02 13.9375 483.32 11.1602 485.008 8.76953C486.766 6.30859 488.945 4.33984 491.547 2.86328C494.148 1.38672 497.172 0.648438 500.617 0.648438C508.703 0.648438 514.68 3.03906 518.547 7.82031C518.617 7.89062 518.863 8.3125 519.285 9.08594C519.777 9.78906 520.305 10.5977 520.867 11.5117C521.43 12.3555 521.957 13.1289 522.449 13.832C523.012 14.5352 523.363 14.8867 523.504 14.8867H524.137V0.648438H546.812V208H524.137V100.211L501.461 118.352V208H478.785V125.312L520.656 91.7734V86.1836C520.445 86.1836 519.707 86.6055 518.441 87.4492C517.246 88.2227 515.734 89.1016 513.906 90.0859C512.148 91.0703 510.18 91.9844 508 92.8281C505.82 93.6016 503.641 93.9883 501.461 93.9883C498.297 93.9883 495.309 93.25 492.496 91.7734C489.754 90.2969 487.363 88.3633 485.324 85.9727C483.285 83.5117 481.668 80.7344 480.473 77.6406C479.348 74.5469 478.785 71.418 478.785 68.2539C478.785 64.5977 479.172 61.6094 479.945 59.2891C480.719 56.9688 481.844 55.0352 483.32 53.4883C484.797 51.8711 486.625 50.5352 488.805 49.4805C490.984 48.4258 493.48 47.3359 496.293 46.2109C498.262 45.3672 500.652 44.2773 503.465 42.9414C506.277 41.6055 508.949 40.1641 511.48 38.6172C514.012 37 516.156 35.3828 517.914 33.7656C519.742 32.0781 520.656 30.5312 520.656 29.125V19.2109C520.656 17.8047 520.094 16.293 518.969 14.6758C517.914 13.0586 516.578 11.5469 514.961 10.1406C513.414 8.73438 511.691 7.57422 509.793 6.66016C507.965 5.67578 506.277 5.18359 504.73 5.18359C503.324 5.18359 501.742 5.25391 499.984 5.39453C498.297 5.46484 496.68 5.71094 495.133 6.13281C493.656 6.55469 492.391 7.15234 491.336 7.92578C490.352 8.69922 489.859 9.71875 489.859 10.9844C489.859 11.1953 490 11.4062 490.281 11.6172C490.633 11.8281 491.02 12.0391 491.441 12.25C491.863 12.3906 492.25 12.5312 492.602 12.6719C493.023 12.7422 493.305 12.7773 493.445 12.7773Z" fill="#D71823"/>
<path d="M398.84 208V0.648438H422.148V83.5469H423.52C427.598 76.5859 434.559 70.4688 444.402 65.1953V0.648438H468.449V65.1953C466.621 65.1953 464.371 65.6172 461.699 66.4609C459.027 67.2344 456.215 68.3242 453.262 69.7305C450.379 71.0664 447.496 72.6836 444.613 74.582C441.73 76.4102 439.129 78.3789 436.809 80.4883C434.559 82.5977 432.695 84.8125 431.219 87.1328C429.812 89.3828 429.109 91.5977 429.109 93.7773C429.109 96.2383 429.812 98.5938 431.219 100.844C432.625 103.023 434.453 105.062 436.703 106.961C438.953 108.789 441.484 110.477 444.297 112.023C447.18 113.5 450.062 114.766 452.945 115.82C455.898 116.805 458.711 117.578 461.383 118.141C464.125 118.703 466.48 118.984 468.449 118.984V208H444.402V119.195C435.684 116.312 428.723 110.863 423.52 102.848H422.148V208H398.84Z" fill="#D71823"/>
<path d="M367.938 5.39453H343.047V85.9727L367.938 74.4766V5.39453ZM367.938 98.7344C369.836 98.7344 371.629 99.1211 373.316 99.8945C375.074 100.598 376.586 101.582 377.852 102.848C379.188 104.113 380.242 105.59 381.016 107.277C381.789 108.965 382.176 110.793 382.176 112.762C382.176 114.801 381.824 116.664 381.121 118.352C380.418 120.039 379.434 121.48 378.168 122.676C376.902 123.871 375.391 124.82 373.633 125.523C371.945 126.227 370.117 126.578 368.148 126.578C365.688 126.578 363.543 126.297 361.715 125.734C359.957 125.102 358.164 124.152 356.336 122.887C354.578 121.551 352.645 119.898 350.535 117.93C348.496 115.891 346 113.5 343.047 110.758V208H321.426V0.648438H391.668V73.4219C385.762 75.9531 380.172 78.1328 374.898 79.9609C369.695 81.7188 365.125 83.4766 361.188 85.2344C357.32 86.9219 354.262 88.75 352.012 90.7188C349.762 92.6875 348.637 95.0781 348.637 97.8906C348.637 101.688 349.094 105.098 350.008 108.121C350.922 111.145 352.504 113.395 354.754 114.871C354.754 112.762 355.035 110.758 355.598 108.859C356.23 106.891 357.074 105.168 358.129 103.691C359.254 102.145 360.625 100.949 362.242 100.105C363.93 99.1914 365.828 98.7344 367.938 98.7344Z" fill="#D71823"/>
<path d="M283.352 36.7188C281.172 38.7578 278.922 40.7969 276.602 42.8359C274.352 44.8047 272.207 46.8789 270.168 49.0586C268.27 51.0977 266.863 53.5938 265.949 56.5469C265.035 59.5 264.578 62.4531 264.578 65.4062C264.578 67.4453 264.754 69.5898 265.105 71.8398C265.527 74.0195 266.16 76.0234 267.004 77.8516C267.918 79.6797 269.043 81.1914 270.379 82.3867C271.715 83.582 273.332 84.1797 275.23 84.1797C283.246 84.1797 287.254 80.9453 287.254 74.4766V36.7188H283.352ZM256.562 12.7773C258.531 12.7773 260.359 13.1641 262.047 13.9375C263.734 14.6406 265.176 15.625 266.371 16.8906C267.637 18.1562 268.621 19.6328 269.324 21.3203C270.027 23.0078 270.379 24.8359 270.379 26.8047C270.379 28.7031 270.027 30.4961 269.324 32.1836C268.621 33.8711 267.637 35.3477 266.371 36.6133C265.176 37.8789 263.734 38.8633 262.047 39.5664C260.359 40.2695 258.531 40.6211 256.562 40.6211C254.664 40.6211 252.871 40.2695 251.184 39.5664C249.496 38.8633 248.055 37.8789 246.859 36.6133C245.664 35.3477 244.715 33.8711 244.012 32.1836C243.309 30.4961 242.957 28.7031 242.957 26.8047C242.957 23.4297 243.379 20.1953 244.223 17.1016C245.137 13.9375 246.438 11.1602 248.125 8.76953C249.883 6.30859 252.062 4.33984 254.664 2.86328C257.266 1.38672 260.289 0.648438 263.734 0.648438C271.82 0.648438 277.797 3.03906 281.664 7.82031C281.734 7.89062 281.98 8.3125 282.402 9.08594C282.895 9.78906 283.422 10.5977 283.984 11.5117C284.547 12.3555 285.074 13.1289 285.566 13.832C286.129 14.5352 286.48 14.8867 286.621 14.8867H287.254V0.648438H309.93V208H287.254V100.211L264.578 118.352V208H241.902V125.312L283.773 91.7734V86.1836C283.562 86.1836 282.824 86.6055 281.559 87.4492C280.363 88.2227 278.852 89.1016 277.023 90.0859C275.266 91.0703 273.297 91.9844 271.117 92.8281C268.938 93.6016 266.758 93.9883 264.578 93.9883C261.414 93.9883 258.426 93.25 255.613 91.7734C252.871 90.2969 250.48 88.3633 248.441 85.9727C246.402 83.5117 244.785 80.7344 243.59 77.6406C242.465 74.5469 241.902 71.418 241.902 68.2539C241.902 64.5977 242.289 61.6094 243.062 59.2891C243.836 56.9688 244.961 55.0352 246.438 53.4883C247.914 51.8711 249.742 50.5352 251.922 49.4805C254.102 48.4258 256.598 47.3359 259.41 46.2109C261.379 45.3672 263.77 44.2773 266.582 42.9414C269.395 41.6055 272.066 40.1641 274.598 38.6172C277.129 37 279.273 35.3828 281.031 33.7656C282.859 32.0781 283.773 30.5312 283.773 29.125V19.2109C283.773 17.8047 283.211 16.293 282.086 14.6758C281.031 13.0586 279.695 11.5469 278.078 10.1406C276.531 8.73438 274.809 7.57422 272.91 6.66016C271.082 5.67578 269.395 5.18359 267.848 5.18359C266.441 5.18359 264.859 5.25391 263.102 5.39453C261.414 5.46484 259.797 5.71094 258.25 6.13281C256.773 6.55469 255.508 7.15234 254.453 7.92578C253.469 8.69922 252.977 9.71875 252.977 10.9844C252.977 11.1953 253.117 11.4062 253.398 11.6172C253.75 11.8281 254.137 12.0391 254.559 12.25C254.98 12.3906 255.367 12.5312 255.719 12.6719C256.141 12.7422 256.422 12.7773 256.562 12.7773Z" fill="#D71823"/>
<path d="M161.957 208V0.648438H185.266V83.5469H186.637C190.715 76.5859 197.676 70.4688 207.52 65.1953V0.648438H231.566V65.1953C229.738 65.1953 227.488 65.6172 224.816 66.4609C222.145 67.2344 219.332 68.3242 216.379 69.7305C213.496 71.0664 210.613 72.6836 207.73 74.582C204.848 76.4102 202.246 78.3789 199.926 80.4883C197.676 82.5977 195.812 84.8125 194.336 87.1328C192.93 89.3828 192.227 91.5977 192.227 93.7773C192.227 96.2383 192.93 98.5938 194.336 100.844C195.742 103.023 197.57 105.062 199.82 106.961C202.07 108.789 204.602 110.477 207.414 112.023C210.297 113.5 213.18 114.766 216.062 115.82C219.016 116.805 221.828 117.578 224.5 118.141C227.242 118.703 229.598 118.984 231.566 118.984V208H207.52V119.195C198.801 116.312 191.84 110.863 186.637 102.848H185.266V208H161.957Z" fill="#D71823"/>
<path d="M129.367 20.6875C129.367 19 129.016 17.4531 128.312 16.0469C127.68 14.5703 126.766 13.3047 125.57 12.25C124.445 11.1953 123.109 10.3867 121.562 9.82422C120.086 9.19141 118.504 8.875 116.816 8.875C115.34 8.875 113.934 9.29688 112.598 10.1406C111.332 10.9141 110.172 11.9336 109.117 13.1992C108.133 14.4648 107.324 15.8711 106.691 17.418C106.129 18.9648 105.848 20.5117 105.848 22.0586V76.6914H129.367C138.93 76.6914 145.398 81.5781 148.773 91.3516C150.953 97.2578 152.043 106.117 152.043 117.93H129.367V94.4102C129.367 93.3555 128.945 92.2305 128.102 91.0352C127.328 89.7695 126.344 88.6445 125.148 87.6602C123.953 86.6758 122.652 85.8672 121.246 85.2344C119.91 84.5312 118.715 84.1797 117.66 84.1797C116.324 84.1797 114.953 84.4609 113.547 85.0234C112.141 85.5859 110.875 86.3242 109.75 87.2383C108.625 88.1523 107.676 89.2422 106.902 90.5078C106.199 91.7031 105.848 92.9336 105.848 94.1992V179.523C105.848 192.883 107.5 199.562 110.805 199.562C113.195 199.562 115.305 198.613 117.133 196.715C119.031 194.746 120.648 192.145 121.984 188.91C123.391 185.676 124.551 181.984 125.465 177.836C126.449 173.688 127.223 169.363 127.785 164.863C128.348 160.363 128.734 155.898 128.945 151.469C129.227 147.039 129.367 142.926 129.367 139.129H152.043C152.043 160.293 147.227 177.203 137.594 189.859C128.312 201.953 116.359 208 101.734 208C99.2031 208 96.6016 207.789 93.9297 207.367C91.2578 206.945 88.832 206.277 86.6523 205.363C84.543 204.379 82.7852 203.148 81.3789 201.672C79.9727 200.125 79.2695 198.262 79.2695 196.082C79.2695 191.23 79.832 187.785 80.957 185.746C82.5039 183.004 85.5273 181.633 90.0273 181.633C90.8008 181.633 91.5391 182.266 92.2422 183.531C93.0156 184.797 93.7891 186.203 94.5625 187.75C95.4062 189.227 96.2148 190.598 96.9883 191.863C97.832 193.129 98.7461 193.762 99.7305 193.762C98.5352 188.699 97.3047 183.145 96.0391 177.098C94.7734 170.98 93.5078 164.688 92.2422 158.219C91.0469 151.68 89.8867 145.105 88.7617 138.496C87.707 131.816 86.7578 125.418 85.9141 119.301C85.0703 113.113 84.4023 107.312 83.9102 101.898C83.418 96.4844 83.1719 91.7383 83.1719 87.6602C83.1719 64.5273 85.7383 45.0156 90.8711 29.125C96.9883 10.1406 105.637 0.648438 116.816 0.648438C124.34 0.648438 130.387 1.84375 134.957 4.23438C139.598 6.625 143.184 9.96484 145.715 14.2539C148.246 18.4727 149.934 23.5352 150.777 29.4414C151.621 35.3477 152.043 41.8164 152.043 48.8477V70.1523H129.367V20.6875Z" fill="#D71823"/>
<path d="M47.1016 5.39453H24.4258V208H0.589844V0.648438H69.7773V208H47.1016V5.39453Z" fill="#D71823"/>
</svg>
