<svg width="4398" height="1686" viewBox="0 0 4398 1686" fill="none" xmlns="http://www.w3.org/2000/svg">
<path d="M0.0195312 1685C0.229531 1679.69 0.609531 1674.38 0.609531 1669.07C0.639531 1118.84 0.639531 568.601 0.639531 18.3705C0.639531 13.1005 0.639531 7.84054 0.639531 2.88053C8.98953 0.670535 561.18 0.0305347 575.31 2.04053C575.64 4.35053 576.18 6.86054 576.32 9.39054C576.5 12.7105 576.38 16.0405 576.38 19.3705C576.38 569.271 576.38 1119.17 576.349 1669.07C576.349 1674.37 575.919 1679.68 575.7 1684.99H399.8C399.93 1680.67 400.17 1676.35 400.17 1672.03C400.19 1134.49 400.19 596.94 400.19 59.4005C400.19 57.0705 400.3 54.7305 400.15 52.4105C399.99 49.8605 399.6 47.3305 399.33 44.9805C385.06 42.9505 185.52 43.6505 177.46 45.9005C177.46 49.8805 177.46 54.1505 177.46 58.4105C177.46 596.621 177.46 1134.83 177.48 1673.04C177.48 1677.02 177.77 1681 177.93 1684.99H0.0195312V1685Z" fill="#D71823"/>
<path d="M1906.92 1685C1907.17 1680.37 1907.65 1675.74 1907.65 1671.11C1907.69 1459.05 1907.68 1246.98 1907.68 1034.92C1907.68 1030.67 1907.68 1026.41 1907.68 1020.81H1952.45V976.169H1996.44V932.279H2040.7V888.059C2056.14 887.299 2070.67 887.769 2085.17 887.679C2099.42 887.599 2113.67 887.659 2129.14 887.659V843.719C2144.4 843.449 2158.49 843.199 2173.62 842.929V799.139H2218.47V754.569H2262.03V708.339H2172.59V749.999C2164.63 752.219 2058.14 752.919 2041.34 750.979V708.389C2026.32 707.189 2012.13 708.409 1996.78 707.529V663.499H1952.53V574.889C1937.01 574.759 1922.91 574.649 1908.34 574.529V532.939H1951.56C1953.42 522.789 1952.3 513.219 1952.49 503.749C1952.69 494.099 1952.53 484.439 1952.53 474.789V444.889H1996.48V400.239C2004.82 400.239 2011.7 400.239 2018.59 400.239C2025.48 400.239 2032.43 400.239 2040.72 400.239C2040.8 392.229 2040.9 385.379 2040.94 378.529C2040.98 371.589 2040.94 364.649 2040.94 357.999C2049.43 355.329 2159.95 355.019 2170.43 357.529V397.859H2127.79V665.609H2306.44V309.369C2277.57 308.379 2248.77 309.519 2219.38 308.709V267.359H2262.42C2262.54 255.549 2262.68 244.719 2262.74 233.879C2262.79 222.889 2262.75 211.909 2262.75 200.919V135.239C2277.41 132.949 2291.73 135.419 2306.72 133.499V2.87943C2314.96 0.659434 2464.26 -0.0805665 2480.89 1.82943C2481.17 4.16943 2481.63 6.69943 2481.74 9.23943C2481.89 12.5594 2481.78 15.8994 2481.78 19.2294C2481.78 569.529 2481.78 1119.83 2481.81 1670.13C2481.81 1675.09 2482.31 1680.05 2482.57 1685.01H2306.67C2306.8 1682.36 2307.05 1679.7 2307.05 1677.05C2307.07 1402.06 2307.07 1127.06 2307.05 852.069C2307.05 848.829 2306.73 845.579 2306.57 842.539C2296.19 840.269 2224.35 840.539 2215.67 843.049V885.479H2171.76C2170.22 900.809 2172.34 915.079 2170.24 930.069H2126.9C2126.9 935.739 2126.9 940.339 2126.9 944.939C2126.9 1186.64 2126.9 1428.34 2126.9 1670.05C2126.9 1675.04 2126.83 1680.04 2126.79 1685.03H1906.92V1685Z" fill="#D71823"/>
<path d="M1297.27 1685C1297.19 1680.67 1297.05 1676.35 1297.05 1672.02C1297.04 1120.37 1297.05 568.72 1297.05 17.0799V1.68993H1472.6V620.42H1562.68C1562.92 606.18 1563.16 592.09 1563.41 577.07H1607.16V532.76H1651.08C1651.81 506.56 1651.33 481.39 1651.42 456.23C1651.51 431.26 1651.44 406.29 1651.44 381.32V3.04993C1659.05 0.519935 1802.65 -0.510065 1825.22 1.60993C1827.41 8.46993 1828.18 515.06 1825.87 530.21C1797.36 531.94 1768.52 529.72 1738.87 531.46V575.23C1709.19 575.95 1680.38 575.16 1650.23 575.72V619.63H1605.8V663.7H1561.41V708.05H1518.91C1516.55 716.37 1515.81 778.49 1517.68 797.92C1531.5 799.04 1545.69 797.81 1560.76 798.67V841.82C1575.73 843.29 1589.94 841.79 1605.39 842.88V886.8H1649.45C1650.94 901.93 1649.35 916.19 1650.61 931.64C1673 931.91 1694.88 931.73 1716.75 931.76C1738.33 931.79 1759.9 931.76 1782.62 931.76V975.32H1826.4C1826.64 979.86 1826.98 983.36 1826.99 986.86C1827.03 1020.48 1827.02 1054.11 1827.01 1087.73C1827.01 1286.81 1827 1485.9 1826.99 1684.98H1651.09C1651.21 1680.33 1651.43 1675.67 1651.43 1671.02C1651.45 1457 1651.44 1242.97 1651.44 1028.95C1651.44 1013.97 1651.48 998.99 1651.41 984.02C1651.39 980.86 1650.96 977.7 1650.64 973.42H1607.13V929.48H1562.71V885.32H1518.33V841.98H1472.59C1472.59 846.44 1472.59 850.34 1472.59 854.24C1472.59 1127.51 1472.59 1400.78 1472.62 1674.05C1472.62 1677.69 1473 1681.33 1473.2 1684.97H1297.3L1297.27 1685Z" fill="#D71823"/>
<path d="M3226.16 1685C3226.19 1680.01 3226.24 1675.01 3226.24 1670.02C3226.24 1119.03 3226.24 568.05 3226.24 17.0597V1.67969H3400.75C3401.83 27.2497 3401.09 52.7697 3401.23 78.2797C3401.37 104.25 3401.26 130.22 3401.26 156.18V542.7C3401.26 568.29 3401.26 593.88 3401.26 619.23C3408.97 621.58 3476.12 622.28 3491.66 620.2C3492.88 606.43 3491.5 592.23 3492.5 577.21H3535.5C3537.31 562.26 3535.5 548.02 3536.71 532.99H3579.98C3580.58 502.54 3580.18 473.06 3580.26 443.59C3580.33 414.29 3580.28 385 3580.28 355.7V90.0197C3580.28 60.7997 3580.28 31.5797 3580.28 1.69969H3753.73C3756 9.06969 3757.12 501.05 3754.81 529.72C3745.59 530.91 3736.04 530.12 3726.56 530.26C3716.9 530.4 3707.24 530.29 3697.58 530.29C3687.92 530.29 3678.39 530.29 3667.34 530.29V574.83H3578.43V619.16C3563.25 619.29 3549.18 619.42 3534.03 619.55V663.19H3490.3C3488.71 678.17 3490.3 692.4 3489.19 707.48H3447.72C3445.06 715.4 3444.51 785.58 3446.88 798.64H3489.22V842.58H3533.6V886.54C3548.49 889.02 3562.79 886.47 3578.16 888.35V932H3711.08V975.84H3755.43C3755.43 981.39 3755.43 985.64 3755.43 989.88C3755.43 1216.93 3755.43 1443.99 3755.45 1671.04C3755.45 1675.69 3755.72 1680.34 3755.86 1684.98H3579.96C3580.08 1680.66 3580.3 1676.34 3580.3 1672.02C3580.32 1485.66 3580.31 1299.3 3580.31 1112.94C3580.31 1070.68 3580.32 1028.41 3580.28 986.15C3580.28 982.31 3579.91 978.48 3579.66 973.52H3536.71C3535.68 958.31 3537.12 944.11 3535.71 929.22H3491.95V885.58H3447.18V842.04H3401.26V853.45C3401.26 1127 3401.26 1400.55 3401.29 1674.1C3401.29 1677.73 3401.79 1681.35 3402.05 1684.98H3226.15L3226.16 1685Z" fill="#D71823"/>
<path d="M3823.82 1685C3823.99 1680.35 3824.31 1675.71 3824.31 1671.06C3824.33 1458.65 3824.33 1246.24 3824.33 1033.83V1020.15H3868.35V976.06H3912.85C3913.04 961.14 3913.22 947.06 3913.42 931.81H3957.52V888.28C3967.73 886.22 3977.33 887.44 3986.82 887.23C3996.48 887.01 4006.14 887.18 4015.8 887.18H4045.83V842.81H4089.97V798.49H4134.84V754.66H4178.74C4179.63 738.83 4179.59 724.12 4178.7 708.41H4089.4V751.46H3957.62V708.46H3914.43C3911.41 693.38 3914.85 679 3912.09 664.23H3868.85C3867.93 634.66 3868.93 605.87 3868.27 576.57C3853.82 573.67 3839.45 577.1 3824.95 574.44V532.69H3868.35C3868.66 502.97 3868.32 474.21 3868.56 444.37H3912.03C3914.55 429.63 3911.96 415.62 3913.98 400.81C3927.81 398.16 3942.17 401.14 3957.48 398.83V355.71H4088.74C4089.11 369.82 4089.03 383.56 4088.77 398.28H4045.49V664.15C4055.69 666.28 4214.51 666.03 4222.91 663.87V309.81H4135.43C4134.8 295.19 4134.97 281.77 4135.33 267.18H4178.54C4178.82 262.22 4179.23 258.34 4179.23 254.47C4179.28 218.51 4179.26 182.56 4179.26 146.6V133.78H4223.48C4223.75 118.21 4223.59 103.68 4223.61 89.1502C4223.64 74.8302 4223.61 60.5202 4223.61 46.2002V1.74023H4396.61C4397 3.71023 4397.65 5.86023 4397.8 8.05023C4398.02 11.3702 4397.88 14.7102 4397.88 18.0302C4397.88 569.03 4397.88 1120.04 4397.86 1671.04C4397.86 1675.69 4397.63 1680.35 4397.5 1685H4223.6V842.27H4133.01V885.82H4088.74V929.96H4044.43C4044.43 936.25 4044.43 941.18 4044.43 946.11C4044.43 1187.44 4044.43 1428.76 4044.4 1670.09C4044.4 1675.06 4043.94 1680.03 4043.7 1685H3823.83H3823.82Z" fill="#D71823"/>
<path d="M667.63 1685C667.51 1680.68 667.29 1676.36 667.29 1672.03C667.27 1162.34 667.28 652.64 667.28 142.95V127.08H711.09V43.4204H800.82V3.11042C809.06 0.560423 1055.3 0.120422 1066.9 2.51042V42.9704H1111.65V84.5904H1156.67V169.2H1198.94C1201.42 177.92 1202.43 519.09 1200.4 544.33C1193.61 546.48 1041.7 547.31 1024.18 545.16V84.7104C1016.14 82.3104 862.43 81.4804 844.49 83.5804C842.97 111.05 844.75 138.84 843.48 167.5H802.04C800.76 168.75 800.52 168.97 800.3 169.21C800.08 169.45 799.72 169.7 799.68 169.98C799.46 171.62 799.17 173.27 799.17 174.92C799.18 326.06 799.21 477.21 799.28 628.35C799.28 629.28 799.76 630.21 800.34 632.31H1111.73V674.9H1156.61V715.97H1200.33V967.11H1023.91C1023.77 883.25 1023.93 799.53 1023.82 714.64C1009.39 713.36 995.47 714.64 980.46 713.75V675.59C972.18 672.89 855.47 672.42 843.91 674.94V756.52H799.83V1472.78H844.24V1600.68H935.01V1516.55H979.72V1390.82C994.44 1389.2 1008.38 1390.74 1023.65 1389.68C1024.1 1361.6 1023.79 1333.78 1023.85 1305.97C1023.91 1278.34 1023.86 1250.71 1023.86 1223.07C1023.86 1195.43 1023.86 1167.25 1023.86 1138.64H1200.36V1345.16C1186.1 1347.51 1171.75 1344.68 1157.09 1347.02V1471.76C1141.98 1472.05 1127.56 1472.33 1111.98 1472.63V1514.23H1067.18V1598.68C1037.23 1600.76 1008.38 1597.73 978.28 1599.56V1640.41H888.13C887.92 1655.95 887.72 1670.46 887.52 1684.97H667.65L667.63 1685Z" fill="#D71823"/>
<path d="M2582.53 1685C2582.68 1680.02 2582.95 1675.03 2582.95 1670.05C2582.97 1118.75 2582.97 567.441 2582.97 16.1409V1.71094H3156.05C3157.91 8.86094 3158.6 559.271 3156.62 574.951H3113.72C3111.28 590.211 3114 604.521 3111.85 619.321H2980.62C2979.02 634.181 2980.64 648.411 2979.49 663.731H2891.84V707.571H2803.18C2802.9 712.801 2802.49 716.961 2802.48 721.111C2802.44 786.361 2802.45 851.611 2802.45 916.861V929.521H2758.68C2758.43 933.931 2758.06 937.441 2758.06 940.951C2758.01 968.251 2758.03 995.551 2758.03 1022.85C2758.03 1238.91 2758.03 1454.97 2758.05 1671.03C2758.05 1675.68 2758.3 1680.33 2758.43 1684.99H2582.53V1685ZM2758.48 43.9509V663.921C2767.74 666.541 2840.18 666.391 2848.98 663.531V621.211H2936.18C2938.78 610.461 2938.46 52.0909 2935.95 43.9509H2758.47H2758.48Z" fill="#D71823"/>
<path d="M2848.75 1017.42V974.22H2805.34V932.37H2848.55C2849.09 901.96 2848.47 872.881 2848.93 842.841H2892.79V798.98H3023.97V842.38H3066.38C3068.95 850.76 3069.45 961.42 3067.09 973.69H3025.05C3023.3 988.55 3025 1002.48 3023.93 1015.88C3023.39 1016.5 3023.19 1016.77 3022.95 1017C3022.72 1017.22 3022.47 1017.52 3022.19 1017.58C3020.89 1017.85 3019.58 1018.25 3018.28 1018.25C2963.98 1018.29 2909.68 1018.3 2855.38 1018.27C2853.75 1018.27 2852.11 1017.87 2848.76 1017.42H2848.75Z" fill="#D71823"/>
<path d="M4044.54 308.77H3870.36C3868.06 301.44 3867.14 108.88 3869.32 90.1403C3883.15 88.5003 3897.4 90.3503 3912.9 88.9303V45.8203H3955.2V89.1103H3999.37C3999.64 104.12 3999.89 118.19 4000.16 133.36H4043.88C4044.14 148.53 4044.39 162.6 4044.66 178.04C4059.56 178.18 4073.66 178.3 4088.29 178.44V264.55H4044.52V308.77H4044.54Z" fill="#D71823"/>
<path d="M2169.52 264.44H2127.28V306.58C2119.53 309.38 1969.46 310.29 1954.27 308C1952.15 300.89 1951.48 105.01 1953.69 91.1101C1967.37 88.6401 1981.73 91.7201 1996.8 89.1701V45.8301H2037.67C2038.98 59.8401 2037.61 74.0801 2038.57 89.4001C2052.86 91.3301 2067.13 89.2801 2082.32 90.7701V133.88C2097.53 134.18 2111.62 134.46 2126.76 134.76V178.01C2141.54 179.95 2155.47 178.05 2169.13 179.29C2171.66 186.67 2172.09 252.95 2169.52 264.44Z" fill="#D71823"/>
<path d="M3957.93 43.5103V2.85029C3965.21 0.610291 4112.9 -0.289709 4132.95 1.86029V44.8903H4176.66V131.85H4134.82C4133.83 117.63 4135 103.08 4134.07 87.4403H4090.63V43.5103H3957.92H3957.93Z" fill="#D71823"/>
<path d="M2041.62 1.57031H2215.79V44.6603C2230.8 46.1203 2244.99 44.5703 2259.7 45.6703V131.38H2218.73C2218.51 116.94 2218.3 102.54 2218.06 87.0003H2174.62V43.5403C2151.58 42.1103 2129.75 43.0803 2107.96 42.9003C2086.07 42.7203 2064.18 42.8603 2041.62 42.8603V1.57031Z" fill="#D71823"/>
<path d="M4090.78 353.469V311.689H4132.4V353.469H4090.78Z" fill="#D71823"/>
<path d="M2215.17 352.911C2212.52 353.221 2210.28 353.701 2208.04 353.721C2197.13 353.801 2186.21 353.761 2173.93 353.761C2173.29 339.421 2173.55 326.081 2173.73 312.061H2215.16V352.921L2215.17 352.911Z" fill="#D71823"/>
</svg>
