<svg width="800" height="140" viewBox="0 0 800 140" fill="none" xmlns="http://www.w3.org/2000/svg">
<rect x="800" y="130" width="10" height="10" transform="rotate(-180 800 130)" fill="#D71823"/>
<rect x="800" y="110" width="10" height="10" transform="rotate(-180 800 110)" fill="#D71823"/>
<rect x="790" y="120" width="10" height="10" transform="rotate(-180 790 120)" fill="#D71823"/>
<rect x="780" y="110" width="10" height="10" transform="rotate(-180 780 110)" fill="#D71823"/>
<rect x="780" y="130" width="10" height="10" transform="rotate(-180 780 130)" fill="#D71823"/>
<rect x="760" y="130" width="10" height="10" transform="rotate(-180 760 130)" fill="#D71823"/>
<rect x="760" y="110" width="10" height="10" transform="rotate(-180 760 110)" fill="#D71823"/>
<rect x="770" y="120" width="10" height="10" transform="rotate(-180 770 120)" fill="#D71823"/>
<rect x="790" y="120" width="10" height="10" transform="rotate(-180 790 120)" fill="#D71823"/>
<rect x="740" y="120" width="10" height="10" transform="rotate(-180 740 120)" fill="#D71823"/>
<rect x="680" y="120" width="10" height="10" transform="rotate(-180 680 120)" fill="#D71823"/>
<rect x="780" y="110" width="10" height="10" transform="rotate(-180 780 110)" fill="#D71823"/>
<rect x="730" y="110" width="10" height="10" transform="rotate(-180 730 110)" fill="#D71823"/>
<rect x="720" y="90" width="10" height="10" transform="rotate(-180 720 90)" fill="#D71823"/>
<rect x="710" y="70" width="10" height="10" transform="rotate(-180 710 70)" fill="#D71823"/>
<rect x="700" y="70" width="10" height="10" transform="rotate(-180 700 70)" fill="#D71823"/>
<rect x="690" y="70" width="10" height="10" transform="rotate(-180 690 70)" fill="#D71823"/>
<rect x="680" y="70" width="10" height="10" transform="rotate(-180 680 70)" fill="#D71823"/>
<rect x="690" y="60" width="10" height="10" transform="rotate(-180 690 60)" fill="#D71823"/>
<rect x="680" y="60" width="10" height="10" transform="rotate(-180 680 60)" fill="#D71823"/>
<rect x="670" y="60" width="10" height="10" transform="rotate(-180 670 60)" fill="#D71823"/>
<rect x="680" y="50" width="10" height="10" transform="rotate(-180 680 50)" fill="#D71823"/>
<rect x="670" y="50" width="10" height="10" transform="rotate(-180 670 50)" fill="#D71823"/>
<rect x="660" y="50" width="10" height="10" transform="rotate(-180 660 50)" fill="#D71823"/>
<rect x="610" y="90" width="10" height="10" transform="rotate(-180 610 90)" fill="#D71823"/>
<rect x="590" y="90" width="10" height="10" transform="rotate(-180 590 90)" fill="#D71823"/>
<rect x="580" y="80" width="10" height="10" transform="rotate(-180 580 80)" fill="#D71823"/>
<rect x="570" y="70" width="10" height="10" transform="rotate(-180 570 70)" fill="#D71823"/>
<rect x="560" y="60" width="10" height="10" transform="rotate(-180 560 60)" fill="#D71823"/>
<rect x="620" y="80" width="10" height="10" transform="rotate(-180 620 80)" fill="#D71823"/>
<rect x="630" y="70" width="10" height="10" transform="rotate(-180 630 70)" fill="#D71823"/>
<rect x="640" y="60" width="10" height="10" transform="rotate(-180 640 60)" fill="#D71823"/>
<rect x="600" y="80" width="10" height="10" transform="rotate(-180 600 80)" fill="#D71823"/>
<rect x="600" y="70" width="10" height="10" transform="rotate(-180 600 70)" fill="#D71823"/>
<rect x="590" y="60" width="10" height="10" transform="rotate(-180 590 60)" fill="#D71823"/>
<rect x="580" y="50" width="10" height="10" transform="rotate(-180 580 50)" fill="#D71823"/>
<rect x="570" y="40" width="10" height="10" transform="rotate(-180 570 40)" fill="#D71823"/>
<rect x="580" y="40" width="10" height="10" transform="rotate(-180 580 40)" fill="#D71823"/>
<rect x="580" y="30" width="10" height="10" transform="rotate(-180 580 30)" fill="#D71823"/>
<rect x="600" y="10" width="10" height="10" transform="rotate(-180 600 10)" fill="#D71823"/>
<rect x="590" y="20" width="10" height="10" transform="rotate(-180 590 20)" fill="#D71823"/>
<rect x="610" y="20" width="10" height="10" transform="rotate(-180 610 20)" fill="#D71823"/>
<rect x="620" y="30" width="10" height="10" transform="rotate(-180 620 30)" fill="#D71823"/>
<rect x="630" y="40" width="10" height="10" transform="rotate(-180 630 40)" fill="#D71823"/>
<rect x="620" y="40" width="10" height="10" transform="rotate(-180 620 40)" fill="#D71823"/>
<rect x="600" y="40" width="10" height="10" transform="rotate(-180 600 40)" fill="#D71823"/>
<rect x="610" y="60" width="10" height="10" transform="rotate(-180 610 60)" fill="#D71823"/>
<rect x="620" y="50" width="10" height="10" transform="rotate(-180 620 50)" fill="#D71823"/>
<rect x="720" y="50" width="10" height="10" transform="rotate(-180 720 50)" fill="#D71823"/>
<rect x="700" y="60" width="10" height="10" transform="rotate(-180 700 60)" fill="#D71823"/>
<rect x="710" y="50" width="10" height="10" transform="rotate(-180 710 50)" fill="#D71823"/>
<rect x="710" y="40" width="10" height="10" transform="rotate(-180 710 40)" fill="#D71823"/>
<rect x="710" y="30" width="10" height="10" transform="rotate(-180 710 30)" fill="#D71823"/>
<rect x="710" y="20" width="10" height="10" transform="rotate(-180 710 20)" fill="#D71823"/>
<rect x="700" y="40" width="10" height="10" transform="rotate(-180 700 40)" fill="#D71823"/>
<rect x="700" y="30" width="10" height="10" transform="rotate(-180 700 30)" fill="#D71823"/>
<rect x="700" y="20" width="10" height="10" transform="rotate(-180 700 20)" fill="#D71823"/>
<rect x="700" y="10" width="10" height="10" transform="rotate(-180 700 10)" fill="#D71823"/>
<rect x="690" y="50" width="10" height="10" transform="rotate(-180 690 50)" fill="#D71823"/>
<rect x="720" y="60" width="10" height="10" transform="rotate(-180 720 60)" fill="#D71823"/>
<rect x="720" y="40" width="10" height="10" transform="rotate(-180 720 40)" fill="#D71823"/>
<rect x="720" y="30" width="10" height="10" transform="rotate(-180 720 30)" fill="#D71823"/>
<rect x="740" y="60" width="10" height="10" transform="rotate(-180 740 60)" fill="#D71823"/>
<rect x="740" y="50" width="10" height="10" transform="rotate(-180 740 50)" fill="#D71823"/>
<rect x="740" y="40" width="10" height="10" transform="rotate(-180 740 40)" fill="#D71823"/>
<rect x="740" y="30" width="10" height="10" transform="rotate(-180 740 30)" fill="#D71823"/>
<rect x="750" y="40" width="10" height="10" transform="rotate(-180 750 40)" fill="#D71823"/>
<rect x="750" y="30" width="10" height="10" transform="rotate(-180 750 30)" fill="#D71823"/>
<rect x="750" y="20" width="10" height="10" transform="rotate(-180 750 20)" fill="#D71823"/>
<rect x="760" y="30" width="10" height="10" transform="rotate(-180 760 30)" fill="#D71823"/>
<rect x="760" y="20" width="10" height="10" transform="rotate(-180 760 20)" fill="#D71823"/>
<rect x="760" y="10" width="10" height="10" transform="rotate(-180 760 10)" fill="#D71823"/>
<rect x="800" y="10" width="10" height="10" transform="rotate(-180 800 10)" fill="#D71823"/>
<rect x="760" y="70" width="10" height="10" transform="rotate(-180 760 70)" fill="#D71823"/>
<rect x="750" y="50" width="10" height="10" transform="rotate(-180 750 50)" fill="#D71823"/>
<rect x="760" y="60" width="10" height="10" transform="rotate(-180 760 60)" fill="#D71823"/>
<rect x="770" y="60" width="10" height="10" transform="rotate(-180 770 60)" fill="#D71823"/>
<rect x="780" y="60" width="10" height="10" transform="rotate(-180 780 60)" fill="#D71823"/>
<rect x="790" y="60" width="10" height="10" transform="rotate(-180 790 60)" fill="#D71823"/>
<rect x="770" y="50" width="10" height="10" transform="rotate(-180 770 50)" fill="#D71823"/>
<rect x="780" y="50" width="10" height="10" transform="rotate(-180 780 50)" fill="#D71823"/>
<rect x="790" y="50" width="10" height="10" transform="rotate(-180 790 50)" fill="#D71823"/>
<rect x="800" y="50" width="10" height="10" transform="rotate(-180 800 50)" fill="#D71823"/>
<rect x="760" y="40" width="10" height="10" transform="rotate(-180 760 40)" fill="#D71823"/>
<rect x="750" y="70" width="10" height="10" transform="rotate(-180 750 70)" fill="#D71823"/>
<rect x="770" y="70" width="10" height="10" transform="rotate(-180 770 70)" fill="#D71823"/>
<rect x="780" y="70" width="10" height="10" transform="rotate(-180 780 70)" fill="#D71823"/>
<rect x="740" y="90" width="10" height="10" transform="rotate(-180 740 90)" fill="#D71823"/>
<rect x="730" y="80" width="10" height="10" transform="rotate(-180 730 80)" fill="#D71823"/>
<rect x="730" y="10" width="10" height="10" transform="rotate(-180 730 10)" fill="#D71823"/>
<rect x="660" y="10" width="10" height="10" transform="rotate(-180 660 10)" fill="#D71823"/>
<rect x="640" y="10" width="10" height="10" transform="rotate(-180 640 10)" fill="#D71823"/>
<rect x="650" y="20" width="10" height="10" transform="rotate(-180 650 20)" fill="#D71823"/>
<rect x="560" y="10" width="10" height="10" transform="rotate(-180 560 10)" fill="#D71823"/>
<rect x="540" y="10" width="10" height="10" transform="rotate(-180 540 10)" fill="#D71823"/>
<rect x="550" y="20" width="10" height="10" transform="rotate(-180 550 20)" fill="#D71823"/>
<rect x="180" y="90" width="10" height="10" transform="rotate(-180 180 90)" fill="#D71823"/>
<rect x="170" y="70" width="10" height="10" transform="rotate(-180 170 70)" fill="#D71823"/>
<rect x="160" y="70" width="10" height="10" transform="rotate(-180 160 70)" fill="#D71823"/>
<rect x="150" y="70" width="10" height="10" transform="rotate(-180 150 70)" fill="#D71823"/>
<rect x="140" y="70" width="10" height="10" transform="rotate(-180 140 70)" fill="#D71823"/>
<rect x="150" y="60" width="10" height="10" transform="rotate(-180 150 60)" fill="#D71823"/>
<rect x="140" y="60" width="10" height="10" transform="rotate(-180 140 60)" fill="#D71823"/>
<rect x="130" y="60" width="10" height="10" transform="rotate(-180 130 60)" fill="#D71823"/>
<rect x="140" y="50" width="10" height="10" transform="rotate(-180 140 50)" fill="#D71823"/>
<rect x="130" y="50" width="10" height="10" transform="rotate(-180 130 50)" fill="#D71823"/>
<rect x="120" y="50" width="10" height="10" transform="rotate(-180 120 50)" fill="#D71823"/>
<rect x="70" y="90" width="10" height="10" transform="rotate(-180 70 90)" fill="#D71823"/>
<rect x="50" y="90" width="10" height="10" transform="rotate(-180 50 90)" fill="#D71823"/>
<rect x="40" y="80" width="10" height="10" transform="rotate(-180 40 80)" fill="#D71823"/>
<rect x="30" y="70" width="10" height="10" transform="rotate(-180 30 70)" fill="#D71823"/>
<rect x="20" y="60" width="10" height="10" transform="rotate(-180 20 60)" fill="#D71823"/>
<rect x="80" y="80" width="10" height="10" transform="rotate(-180 80 80)" fill="#D71823"/>
<rect x="90" y="70" width="10" height="10" transform="rotate(-180 90 70)" fill="#D71823"/>
<rect x="100" y="60" width="10" height="10" transform="rotate(-180 100 60)" fill="#D71823"/>
<rect x="60" y="80" width="10" height="10" transform="rotate(-180 60 80)" fill="#D71823"/>
<rect x="60" y="70" width="10" height="10" transform="rotate(-180 60 70)" fill="#D71823"/>
<rect x="50" y="60" width="10" height="10" transform="rotate(-180 50 60)" fill="#D71823"/>
<rect x="40" y="50" width="10" height="10" transform="rotate(-180 40 50)" fill="#D71823"/>
<rect x="30" y="40" width="10" height="10" transform="rotate(-180 30 40)" fill="#D71823"/>
<rect x="40" y="40" width="10" height="10" transform="rotate(-180 40 40)" fill="#D71823"/>
<rect x="40" y="30" width="10" height="10" transform="rotate(-180 40 30)" fill="#D71823"/>
<rect x="60" y="10" width="10" height="10" transform="rotate(-180 60 10)" fill="#D71823"/>
<rect x="50" y="20" width="10" height="10" transform="rotate(-180 50 20)" fill="#D71823"/>
<rect x="70" y="20" width="10" height="10" transform="rotate(-180 70 20)" fill="#D71823"/>
<rect x="80" y="30" width="10" height="10" transform="rotate(-180 80 30)" fill="#D71823"/>
<rect x="90" y="40" width="10" height="10" transform="rotate(-180 90 40)" fill="#D71823"/>
<rect x="80" y="40" width="10" height="10" transform="rotate(-180 80 40)" fill="#D71823"/>
<rect x="60" y="40" width="10" height="10" transform="rotate(-180 60 40)" fill="#D71823"/>
<rect x="70" y="60" width="10" height="10" transform="rotate(-180 70 60)" fill="#D71823"/>
<rect x="80" y="50" width="10" height="10" transform="rotate(-180 80 50)" fill="#D71823"/>
<rect x="180" y="50" width="10" height="10" transform="rotate(-180 180 50)" fill="#D71823"/>
<rect x="160" y="60" width="10" height="10" transform="rotate(-180 160 60)" fill="#D71823"/>
<rect x="170" y="50" width="10" height="10" transform="rotate(-180 170 50)" fill="#D71823"/>
<rect x="170" y="40" width="10" height="10" transform="rotate(-180 170 40)" fill="#D71823"/>
<rect x="170" y="30" width="10" height="10" transform="rotate(-180 170 30)" fill="#D71823"/>
<rect x="170" y="20" width="10" height="10" transform="rotate(-180 170 20)" fill="#D71823"/>
<rect x="160" y="40" width="10" height="10" transform="rotate(-180 160 40)" fill="#D71823"/>
<rect x="160" y="30" width="10" height="10" transform="rotate(-180 160 30)" fill="#D71823"/>
<rect x="160" y="20" width="10" height="10" transform="rotate(-180 160 20)" fill="#D71823"/>
<rect x="160" y="10" width="10" height="10" transform="rotate(-180 160 10)" fill="#D71823"/>
<rect x="150" y="50" width="10" height="10" transform="rotate(-180 150 50)" fill="#D71823"/>
<rect x="180" y="60" width="10" height="10" transform="rotate(-180 180 60)" fill="#D71823"/>
<rect x="180" y="40" width="10" height="10" transform="rotate(-180 180 40)" fill="#D71823"/>
<rect x="180" y="30" width="10" height="10" transform="rotate(-180 180 30)" fill="#D71823"/>
<rect x="200" y="60" width="10" height="10" transform="rotate(-180 200 60)" fill="#D71823"/>
<rect x="200" y="50" width="10" height="10" transform="rotate(-180 200 50)" fill="#D71823"/>
<rect x="200" y="40" width="10" height="10" transform="rotate(-180 200 40)" fill="#D71823"/>
<rect x="200" y="30" width="10" height="10" transform="rotate(-180 200 30)" fill="#D71823"/>
<rect x="210" y="40" width="10" height="10" transform="rotate(-180 210 40)" fill="#D71823"/>
<rect x="210" y="30" width="10" height="10" transform="rotate(-180 210 30)" fill="#D71823"/>
<rect x="210" y="20" width="10" height="10" transform="rotate(-180 210 20)" fill="#D71823"/>
<rect x="220" y="30" width="10" height="10" transform="rotate(-180 220 30)" fill="#D71823"/>
<rect x="220" y="20" width="10" height="10" transform="rotate(-180 220 20)" fill="#D71823"/>
<rect x="220" y="10" width="10" height="10" transform="rotate(-180 220 10)" fill="#D71823"/>
<rect x="220" y="70" width="10" height="10" transform="rotate(-180 220 70)" fill="#D71823"/>
<rect x="210" y="50" width="10" height="10" transform="rotate(-180 210 50)" fill="#D71823"/>
<rect x="220" y="60" width="10" height="10" transform="rotate(-180 220 60)" fill="#D71823"/>
<rect x="230" y="60" width="10" height="10" transform="rotate(-180 230 60)" fill="#D71823"/>
<rect x="240" y="60" width="10" height="10" transform="rotate(-180 240 60)" fill="#D71823"/>
<rect x="250" y="60" width="10" height="10" transform="rotate(-180 250 60)" fill="#D71823"/>
<rect x="230" y="50" width="10" height="10" transform="rotate(-180 230 50)" fill="#D71823"/>
<rect x="240" y="50" width="10" height="10" transform="rotate(-180 240 50)" fill="#D71823"/>
<rect x="250" y="50" width="10" height="10" transform="rotate(-180 250 50)" fill="#D71823"/>
<rect x="260" y="50" width="10" height="10" transform="rotate(-180 260 50)" fill="#D71823"/>
<rect x="220" y="40" width="10" height="10" transform="rotate(-180 220 40)" fill="#D71823"/>
<rect x="210" y="70" width="10" height="10" transform="rotate(-180 210 70)" fill="#D71823"/>
<rect x="230" y="70" width="10" height="10" transform="rotate(-180 230 70)" fill="#D71823"/>
<rect x="240" y="70" width="10" height="10" transform="rotate(-180 240 70)" fill="#D71823"/>
<rect x="200" y="90" width="10" height="10" transform="rotate(-180 200 90)" fill="#D71823"/>
<rect x="190" y="80" width="10" height="10" transform="rotate(-180 190 80)" fill="#D71823"/>
<rect x="190" y="10" width="10" height="10" transform="rotate(-180 190 10)" fill="#D71823"/>
<rect x="120" y="10" width="10" height="10" transform="rotate(-180 120 10)" fill="#D71823"/>
<rect x="100" y="10" width="10" height="10" transform="rotate(-180 100 10)" fill="#D71823"/>
<rect x="110" y="20" width="10" height="10" transform="rotate(-180 110 20)" fill="#D71823"/>
<rect x="20" y="10" width="10" height="10" transform="rotate(-180 20 10)" fill="#D71823"/>
<rect x="10" y="20" width="10" height="10" transform="rotate(-180 10 20)" fill="#D71823"/>
<rect x="460" y="90" width="10" height="10" transform="rotate(-180 460 90)" fill="#D71823"/>
<rect x="450" y="70" width="10" height="10" transform="rotate(-180 450 70)" fill="#D71823"/>
<rect x="440" y="70" width="10" height="10" transform="rotate(-180 440 70)" fill="#D71823"/>
<rect x="430" y="70" width="10" height="10" transform="rotate(-180 430 70)" fill="#D71823"/>
<rect x="420" y="70" width="10" height="10" transform="rotate(-180 420 70)" fill="#D71823"/>
<rect x="430" y="60" width="10" height="10" transform="rotate(-180 430 60)" fill="#D71823"/>
<rect x="420" y="60" width="10" height="10" transform="rotate(-180 420 60)" fill="#D71823"/>
<rect x="410" y="60" width="10" height="10" transform="rotate(-180 410 60)" fill="#D71823"/>
<rect x="420" y="50" width="10" height="10" transform="rotate(-180 420 50)" fill="#D71823"/>
<rect x="410" y="50" width="10" height="10" transform="rotate(-180 410 50)" fill="#D71823"/>
<rect x="400" y="50" width="10" height="10" transform="rotate(-180 400 50)" fill="#D71823"/>
<rect x="350" y="90" width="10" height="10" transform="rotate(-180 350 90)" fill="#D71823"/>
<rect x="330" y="90" width="10" height="10" transform="rotate(-180 330 90)" fill="#D71823"/>
<rect x="320" y="80" width="10" height="10" transform="rotate(-180 320 80)" fill="#D71823"/>
<rect x="310" y="70" width="10" height="10" transform="rotate(-180 310 70)" fill="#D71823"/>
<rect x="300" y="60" width="10" height="10" transform="rotate(-180 300 60)" fill="#D71823"/>
<rect x="360" y="80" width="10" height="10" transform="rotate(-180 360 80)" fill="#D71823"/>
<rect x="370" y="70" width="10" height="10" transform="rotate(-180 370 70)" fill="#D71823"/>
<rect x="380" y="60" width="10" height="10" transform="rotate(-180 380 60)" fill="#D71823"/>
<rect x="340" y="80" width="10" height="10" transform="rotate(-180 340 80)" fill="#D71823"/>
<rect x="340" y="70" width="10" height="10" transform="rotate(-180 340 70)" fill="#D71823"/>
<rect x="330" y="60" width="10" height="10" transform="rotate(-180 330 60)" fill="#D71823"/>
<rect x="320" y="50" width="10" height="10" transform="rotate(-180 320 50)" fill="#D71823"/>
<rect x="310" y="40" width="10" height="10" transform="rotate(-180 310 40)" fill="#D71823"/>
<rect x="320" y="40" width="10" height="10" transform="rotate(-180 320 40)" fill="#D71823"/>
<rect x="320" y="30" width="10" height="10" transform="rotate(-180 320 30)" fill="#D71823"/>
<rect x="340" y="10" width="10" height="10" transform="rotate(-180 340 10)" fill="#D71823"/>
<rect x="330" y="20" width="10" height="10" transform="rotate(-180 330 20)" fill="#D71823"/>
<rect x="350" y="20" width="10" height="10" transform="rotate(-180 350 20)" fill="#D71823"/>
<rect x="360" y="30" width="10" height="10" transform="rotate(-180 360 30)" fill="#D71823"/>
<rect x="370" y="40" width="10" height="10" transform="rotate(-180 370 40)" fill="#D71823"/>
<rect x="360" y="40" width="10" height="10" transform="rotate(-180 360 40)" fill="#D71823"/>
<rect x="340" y="40" width="10" height="10" transform="rotate(-180 340 40)" fill="#D71823"/>
<rect x="350" y="60" width="10" height="10" transform="rotate(-180 350 60)" fill="#D71823"/>
<rect x="360" y="50" width="10" height="10" transform="rotate(-180 360 50)" fill="#D71823"/>
<rect x="460" y="50" width="10" height="10" transform="rotate(-180 460 50)" fill="#D71823"/>
<rect x="440" y="60" width="10" height="10" transform="rotate(-180 440 60)" fill="#D71823"/>
<rect x="450" y="50" width="10" height="10" transform="rotate(-180 450 50)" fill="#D71823"/>
<rect x="450" y="40" width="10" height="10" transform="rotate(-180 450 40)" fill="#D71823"/>
<rect x="450" y="30" width="10" height="10" transform="rotate(-180 450 30)" fill="#D71823"/>
<rect x="450" y="20" width="10" height="10" transform="rotate(-180 450 20)" fill="#D71823"/>
<rect x="440" y="40" width="10" height="10" transform="rotate(-180 440 40)" fill="#D71823"/>
<rect x="440" y="30" width="10" height="10" transform="rotate(-180 440 30)" fill="#D71823"/>
<rect x="440" y="20" width="10" height="10" transform="rotate(-180 440 20)" fill="#D71823"/>
<rect x="440" y="10" width="10" height="10" transform="rotate(-180 440 10)" fill="#D71823"/>
<rect x="430" y="50" width="10" height="10" transform="rotate(-180 430 50)" fill="#D71823"/>
<rect x="460" y="60" width="10" height="10" transform="rotate(-180 460 60)" fill="#D71823"/>
<rect x="460" y="40" width="10" height="10" transform="rotate(-180 460 40)" fill="#D71823"/>
<rect x="460" y="30" width="10" height="10" transform="rotate(-180 460 30)" fill="#D71823"/>
<rect x="480" y="60" width="10" height="10" transform="rotate(-180 480 60)" fill="#D71823"/>
<rect x="480" y="50" width="10" height="10" transform="rotate(-180 480 50)" fill="#D71823"/>
<rect x="480" y="40" width="10" height="10" transform="rotate(-180 480 40)" fill="#D71823"/>
<rect x="480" y="30" width="10" height="10" transform="rotate(-180 480 30)" fill="#D71823"/>
<rect x="490" y="40" width="10" height="10" transform="rotate(-180 490 40)" fill="#D71823"/>
<rect x="490" y="30" width="10" height="10" transform="rotate(-180 490 30)" fill="#D71823"/>
<rect x="490" y="20" width="10" height="10" transform="rotate(-180 490 20)" fill="#D71823"/>
<rect x="500" y="30" width="10" height="10" transform="rotate(-180 500 30)" fill="#D71823"/>
<rect x="500" y="20" width="10" height="10" transform="rotate(-180 500 20)" fill="#D71823"/>
<rect x="500" y="10" width="10" height="10" transform="rotate(-180 500 10)" fill="#D71823"/>
<rect x="500" y="70" width="10" height="10" transform="rotate(-180 500 70)" fill="#D71823"/>
<rect x="490" y="50" width="10" height="10" transform="rotate(-180 490 50)" fill="#D71823"/>
<rect x="500" y="60" width="10" height="10" transform="rotate(-180 500 60)" fill="#D71823"/>
<rect x="510" y="60" width="10" height="10" transform="rotate(-180 510 60)" fill="#D71823"/>
<rect x="520" y="60" width="10" height="10" transform="rotate(-180 520 60)" fill="#D71823"/>
<rect x="530" y="60" width="10" height="10" transform="rotate(-180 530 60)" fill="#D71823"/>
<rect x="510" y="50" width="10" height="10" transform="rotate(-180 510 50)" fill="#D71823"/>
<rect x="520" y="50" width="10" height="10" transform="rotate(-180 520 50)" fill="#D71823"/>
<rect x="530" y="50" width="10" height="10" transform="rotate(-180 530 50)" fill="#D71823"/>
<rect x="540" y="50" width="10" height="10" transform="rotate(-180 540 50)" fill="#D71823"/>
<rect x="500" y="40" width="10" height="10" transform="rotate(-180 500 40)" fill="#D71823"/>
<rect x="490" y="70" width="10" height="10" transform="rotate(-180 490 70)" fill="#D71823"/>
<rect x="510" y="70" width="10" height="10" transform="rotate(-180 510 70)" fill="#D71823"/>
<rect x="520" y="70" width="10" height="10" transform="rotate(-180 520 70)" fill="#D71823"/>
<rect x="480" y="90" width="10" height="10" transform="rotate(-180 480 90)" fill="#D71823"/>
<rect x="470" y="80" width="10" height="10" transform="rotate(-180 470 80)" fill="#D71823"/>
<rect x="470" y="10" width="10" height="10" transform="rotate(-180 470 10)" fill="#D71823"/>
<rect x="400" y="10" width="10" height="10" transform="rotate(-180 400 10)" fill="#D71823"/>
<rect x="380" y="10" width="10" height="10" transform="rotate(-180 380 10)" fill="#D71823"/>
<rect x="390" y="20" width="10" height="10" transform="rotate(-180 390 20)" fill="#D71823"/>
<rect x="300" y="10" width="10" height="10" transform="rotate(-180 300 10)" fill="#D71823"/>
<rect x="280" y="10" width="10" height="10" transform="rotate(-180 280 10)" fill="#D71823"/>
<rect x="290" y="20" width="10" height="10" transform="rotate(-180 290 20)" fill="#D71823"/>
<rect x="670" y="110" width="10" height="10" transform="rotate(-180 670 110)" fill="#D71823"/>
<rect x="700" y="110" width="10" height="10" transform="rotate(-180 700 110)" fill="#D71823"/>
<rect x="780" y="130" width="10" height="10" transform="rotate(-180 780 130)" fill="#D71823"/>
<rect x="730" y="130" width="10" height="10" transform="rotate(-180 730 130)" fill="#D71823"/>
<rect x="670" y="130" width="10" height="10" transform="rotate(-180 670 130)" fill="#D71823"/>
<rect x="700" y="130" width="10" height="10" transform="rotate(-180 700 130)" fill="#D71823"/>
<rect x="770" y="120" width="10" height="10" transform="rotate(-180 770 120)" fill="#D71823"/>
<rect x="640" y="130" width="10" height="10" transform="rotate(-180 640 130)" fill="#D71823"/>
<rect x="640" y="110" width="10" height="10" transform="rotate(-180 640 110)" fill="#D71823"/>
<rect x="630" y="120" width="10" height="10" transform="rotate(-180 630 120)" fill="#D71823"/>
<rect x="620" y="110" width="10" height="10" transform="rotate(-180 620 110)" fill="#D71823"/>
<rect x="620" y="130" width="10" height="10" transform="rotate(-180 620 130)" fill="#D71823"/>
<rect x="600" y="130" width="10" height="10" transform="rotate(-180 600 130)" fill="#D71823"/>
<rect x="600" y="110" width="10" height="10" transform="rotate(-180 600 110)" fill="#D71823"/>
<rect x="610" y="120" width="10" height="10" transform="rotate(-180 610 120)" fill="#D71823"/>
<rect x="630" y="120" width="10" height="10" transform="rotate(-180 630 120)" fill="#D71823"/>
<rect x="620" y="110" width="10" height="10" transform="rotate(-180 620 110)" fill="#D71823"/>
<rect x="620" y="130" width="10" height="10" transform="rotate(-180 620 130)" fill="#D71823"/>
<rect x="610" y="120" width="10" height="10" transform="rotate(-180 610 120)" fill="#D71823"/>
<rect x="720" y="120" width="10" height="10" transform="rotate(-180 720 120)" fill="#D71823"/>
<rect x="660" y="120" width="10" height="10" transform="rotate(-180 660 120)" fill="#D71823"/>
<rect x="580" y="120" width="10" height="10" transform="rotate(-180 580 120)" fill="#D71823"/>
<rect x="520" y="120" width="10" height="10" transform="rotate(-180 520 120)" fill="#D71823"/>
<rect x="570" y="110" width="10" height="10" transform="rotate(-180 570 110)" fill="#D71823"/>
<rect x="510" y="110" width="10" height="10" transform="rotate(-180 510 110)" fill="#D71823"/>
<rect x="540" y="110" width="10" height="10" transform="rotate(-180 540 110)" fill="#D71823"/>
<rect x="570" y="130" width="10" height="10" transform="rotate(-180 570 130)" fill="#D71823"/>
<rect x="510" y="130" width="10" height="10" transform="rotate(-180 510 130)" fill="#D71823"/>
<rect x="540" y="130" width="10" height="10" transform="rotate(-180 540 130)" fill="#D71823"/>
<rect x="480" y="130" width="10" height="10" transform="rotate(-180 480 130)" fill="#D71823"/>
<rect x="480" y="110" width="10" height="10" transform="rotate(-180 480 110)" fill="#D71823"/>
<rect x="470" y="120" width="10" height="10" transform="rotate(-180 470 120)" fill="#D71823"/>
<rect x="460" y="110" width="10" height="10" transform="rotate(-180 460 110)" fill="#D71823"/>
<rect x="460" y="130" width="10" height="10" transform="rotate(-180 460 130)" fill="#D71823"/>
<rect x="440" y="130" width="10" height="10" transform="rotate(-180 440 130)" fill="#D71823"/>
<rect x="440" y="110" width="10" height="10" transform="rotate(-180 440 110)" fill="#D71823"/>
<rect x="450" y="120" width="10" height="10" transform="rotate(-180 450 120)" fill="#D71823"/>
<rect x="470" y="120" width="10" height="10" transform="rotate(-180 470 120)" fill="#D71823"/>
<rect x="460" y="110" width="10" height="10" transform="rotate(-180 460 110)" fill="#D71823"/>
<rect x="460" y="130" width="10" height="10" transform="rotate(-180 460 130)" fill="#D71823"/>
<rect x="450" y="120" width="10" height="10" transform="rotate(-180 450 120)" fill="#D71823"/>
<rect x="560" y="120" width="10" height="10" transform="rotate(-180 560 120)" fill="#D71823"/>
<rect x="500" y="120" width="10" height="10" transform="rotate(-180 500 120)" fill="#D71823"/>
<rect x="420" y="120" width="10" height="10" transform="rotate(-180 420 120)" fill="#D71823"/>
<rect x="360" y="120" width="10" height="10" transform="rotate(-180 360 120)" fill="#D71823"/>
<rect x="410" y="110" width="10" height="10" transform="rotate(-180 410 110)" fill="#D71823"/>
<rect x="350" y="110" width="10" height="10" transform="rotate(-180 350 110)" fill="#D71823"/>
<rect x="380" y="110" width="10" height="10" transform="rotate(-180 380 110)" fill="#D71823"/>
<rect x="410" y="130" width="10" height="10" transform="rotate(-180 410 130)" fill="#D71823"/>
<rect x="350" y="130" width="10" height="10" transform="rotate(-180 350 130)" fill="#D71823"/>
<rect x="380" y="130" width="10" height="10" transform="rotate(-180 380 130)" fill="#D71823"/>
<rect x="320" y="130" width="10" height="10" transform="rotate(-180 320 130)" fill="#D71823"/>
<rect x="320" y="110" width="10" height="10" transform="rotate(-180 320 110)" fill="#D71823"/>
<rect x="310" y="120" width="10" height="10" transform="rotate(-180 310 120)" fill="#D71823"/>
<rect x="300" y="110" width="10" height="10" transform="rotate(-180 300 110)" fill="#D71823"/>
<rect x="300" y="130" width="10" height="10" transform="rotate(-180 300 130)" fill="#D71823"/>
<rect x="280" y="130" width="10" height="10" transform="rotate(-180 280 130)" fill="#D71823"/>
<rect x="280" y="110" width="10" height="10" transform="rotate(-180 280 110)" fill="#D71823"/>
<rect x="290" y="120" width="10" height="10" transform="rotate(-180 290 120)" fill="#D71823"/>
<rect x="310" y="120" width="10" height="10" transform="rotate(-180 310 120)" fill="#D71823"/>
<rect x="300" y="110" width="10" height="10" transform="rotate(-180 300 110)" fill="#D71823"/>
<rect x="300" y="130" width="10" height="10" transform="rotate(-180 300 130)" fill="#D71823"/>
<rect x="290" y="120" width="10" height="10" transform="rotate(-180 290 120)" fill="#D71823"/>
<rect x="400" y="120" width="10" height="10" transform="rotate(-180 400 120)" fill="#D71823"/>
<rect x="340" y="120" width="10" height="10" transform="rotate(-180 340 120)" fill="#D71823"/>
<rect x="260" y="120" width="10" height="10" transform="rotate(-180 260 120)" fill="#D71823"/>
<rect x="200" y="120" width="10" height="10" transform="rotate(-180 200 120)" fill="#D71823"/>
<rect x="250" y="110" width="10" height="10" transform="rotate(-180 250 110)" fill="#D71823"/>
<rect x="190" y="110" width="10" height="10" transform="rotate(-180 190 110)" fill="#D71823"/>
<rect x="220" y="110" width="10" height="10" transform="rotate(-180 220 110)" fill="#D71823"/>
<rect x="250" y="130" width="10" height="10" transform="rotate(-180 250 130)" fill="#D71823"/>
<rect x="190" y="130" width="10" height="10" transform="rotate(-180 190 130)" fill="#D71823"/>
<rect x="220" y="130" width="10" height="10" transform="rotate(-180 220 130)" fill="#D71823"/>
<rect x="160" y="130" width="10" height="10" transform="rotate(-180 160 130)" fill="#D71823"/>
<rect x="160" y="110" width="10" height="10" transform="rotate(-180 160 110)" fill="#D71823"/>
<rect x="150" y="120" width="10" height="10" transform="rotate(-180 150 120)" fill="#D71823"/>
<rect x="140" y="110" width="10" height="10" transform="rotate(-180 140 110)" fill="#D71823"/>
<rect x="140" y="130" width="10" height="10" transform="rotate(-180 140 130)" fill="#D71823"/>
<rect x="120" y="130" width="10" height="10" transform="rotate(-180 120 130)" fill="#D71823"/>
<rect x="120" y="110" width="10" height="10" transform="rotate(-180 120 110)" fill="#D71823"/>
<rect x="130" y="120" width="10" height="10" transform="rotate(-180 130 120)" fill="#D71823"/>
<rect x="150" y="120" width="10" height="10" transform="rotate(-180 150 120)" fill="#D71823"/>
<rect x="140" y="110" width="10" height="10" transform="rotate(-180 140 110)" fill="#D71823"/>
<rect x="140" y="130" width="10" height="10" transform="rotate(-180 140 130)" fill="#D71823"/>
<rect x="130" y="120" width="10" height="10" transform="rotate(-180 130 120)" fill="#D71823"/>
<rect x="240" y="120" width="10" height="10" transform="rotate(-180 240 120)" fill="#D71823"/>
<rect x="180" y="120" width="10" height="10" transform="rotate(-180 180 120)" fill="#D71823"/>
<rect x="100" y="120" width="10" height="10" transform="rotate(-180 100 120)" fill="#D71823"/>
<rect x="40" y="120" width="10" height="10" transform="rotate(-180 40 120)" fill="#D71823"/>
<rect x="90" y="110" width="10" height="10" transform="rotate(-180 90 110)" fill="#D71823"/>
<rect x="30" y="110" width="10" height="10" transform="rotate(-180 30 110)" fill="#D71823"/>
<rect x="60" y="110" width="10" height="10" transform="rotate(-180 60 110)" fill="#D71823"/>
<rect x="90" y="130" width="10" height="10" transform="rotate(-180 90 130)" fill="#D71823"/>
<rect x="30" y="130" width="10" height="10" transform="rotate(-180 30 130)" fill="#D71823"/>
<rect x="60" y="130" width="10" height="10" transform="rotate(-180 60 130)" fill="#D71823"/>
<rect x="80" y="120" width="10" height="10" transform="rotate(-180 80 120)" fill="#D71823"/>
<rect x="20" y="120" width="10" height="10" transform="rotate(-180 20 120)" fill="#D71823"/>
<rect x="800" y="140" width="800" height="10" transform="rotate(-180 800 140)" fill="#D71823"/>
<rect x="800" y="100" width="800" height="10" transform="rotate(-180 800 100)" fill="#D71823"/>
</svg>
